<svg version="1.1" id="svg18" xmlns="http://www.w3.org/2000/svg" x="0" y="0" viewBox="0 0 1607.8 2000" style="enable-background:new 0 0 1607.8 2000" xml:space="preserve"><style>.st1{fill:#fff}.st2{fill:#1c1c1a}</style><path id="path6" d="m1607.8 1098.2-814.8 201L0 1097v903l792.6-202.1 815.2 200.6v-900.3z" style="fill:#c10c1a"/><path id="path8" class="st1" d="M100.6 1238.8c-3.8 0-5.8 1.9-5.8 3.8v616.2c0 3.8 2.3 5.8 6.2 3.8l61.8-13.4c1.9 0 2.2-1.7 2.2-3.6v-216.9c0-3.8 1.9-5.5 5.8-5.8l24.7-1.6c41.4-2.6 82.2-35.7 82.2-85.6v-184.5c1.9-42.3-28.8-79.8-71-89.4l-34.8-7.7-71.3-15.3zm1367.3.5c-14-.5-31.6 2.5-53.2 6.7-65.3 13.6-90.3 26.1-90.3 108.7v44.1c0 144.2 117.1 190.4 117.1 290.2v65.4c-.8 23.3-10.8 27.5-26.9 24.9-19.2-1.9-26.9-7.6-26.9-46v-100.7c0-7.7-6.5-7.6-36.5-7.6-26.1 0-28.1-.6-28.1 7.1v109c0 94.1 31.9 102.9 91.5 116.3 82.5 19.3 99.1-8.7 99.1-95.2v-65.4c0-155.7-119.6-192.1-119.6-296 0-11.5-1.9-38.4 0-51.8 0-21.2 8.9-26.9 26.2-28.9 15.4-3.8 24.9 5.8 24.9 28.9v94.2c0 5.8 13.4 5.8 36.5 5.8 19.2 0 30.1 0 30.1-5.8V1318c.1-59.5-13.2-77.6-43.9-78.7zm-179.9 40.5c-.6-.1-1.4-.1-2.3 0l-126.4 27.2c-1.9 0-3.8 1.9-3.8 3.8l.4 480c0 2 1.9 3.9 3.8 3.9l124.9 28.8c3.8 0 5.8-1.9 5.8-5.8l-.4-69.1c0-1.9 0-3.8-3.8-3.8l-60.5-10.9c-3.8 0-3.8-1.9-3.8-3.8V1580c0-1.9 1.9-3.8 3.8-3.8l44.9-2.7c3.8 0 5-1.9 5-5.8v-63.1c0-2.1-1.7-3.7-5-3.5l-44.9 1.7c-1.9 0-3.8-1.9-3.8-5.8v-124.6c0-1.9 1.9-3.8 3.8-3.8l61.1-10.2c1.9 0 3.8-1.9 3.8-3.8v-69.9c0-3-.7-4.5-2.6-4.9zm-968.6 6.6c-2.9-.6-6.8.3-7 3.8v520.7c.2 2.9 2.2 4.3 5.2 3.8l52.2-10.4c3.8-1.9 3.8-3.8 3.8-5.8l-.4-218.4c0-1.9 1.9-3.8 5.8-3.8h19.2c12.6 0 20.1 8.9 21.1 21.1l.8 190.1c.5 4.1 3.5 5 7.7 4.1l48.1-10.4c1.9-1.9 1.9-3.8 1.9-5.8l.8-170.5c-1.9-26.9-5.8-49-34.5-62.5 26.9-11.5 31-33.5 31-58.5v-113.4c0-34.5-13.4-51.9-46.2-59.6l-109.5-24.5zm-148.9 38.8 11.7 2.3c22.4 4.8 35.7 23.9 35.7 45V1520c0 17.3-12.7 33.7-31.8 34.9l-15.5 1c-1.9.1-5.8-1.9-5.8-3.8v-113.9l.4-109.2c-.1-2.1 2.1-4.3 5.3-3.8zm894.7 3.4c-.7-.1-1.5-.1-2.5.1l-52.9 11.3c-1.9 0-3.8 1.9-3.8 3.8v414.9c0 1.9 1.9 3.8 3.8 3.8l108.2 23.4c2.5 1.1 5.3-.8 5.3-2.8v-62.8c0-1.9-.6-3.5-3.8-3.8l-47.8-7.9c-1.9 0-3.8-1.9-3.8-3.8v-372.4c-.2-1.5-.7-3.4-2.7-3.8zm-540.8 3.1c-2.2.4-3.2 2.9-3.2 4.3v430.6c0 1.9 1.9 3.8 5.8 3.8l48.1-11.5c1.9 0 3.8-1.9 3.8-3.8v-406.5c0-1.8-.6-3.8-3.8-5.8l-48.1-10.7c-1.1-.4-1.9-.6-2.6-.4zm104.8 22.8c-3.8 0-5.8.7-5.8 4.5v384.6c0 3.8 1.9 5.8 5.8 3.8l39.5-7.7c1.9 0 3.8-1.9 3.8-5.8v-191.8c.1 0 .1-1.9 1.9-1.9h1.9c1.4 0 1.9 1.7 1.9 1.9l44.9 180.3c0 3.8 1.9 3.8 5.8 3.8l33.9-7.7c1.9 0 3.8-1.9 3.8-4v-326.9c0-1.9-1.9-3.8-3.8-3.8l-35.7-7.7c-1.9-1.9-5.8 0-5.8 3.8v154c0 1.9-.9 3.1-3.7 3.1-3.1 0-3.9-1.1-4.4-3.1l-1.8-5.8-37.1-160.5c-.6-2.1-1.4-3.3-3.8-3.8l-41.3-9.3zm296.3 6.4c-3.2 0-6.6.5-10.2 1.5l-24.9 5.8c0 .2-28.6 5.4-49.7 10.4-32.8 7.7-33.8 22.6-34.3 57.3V1670c0 28.8 6.8 50.5 35.6 56.3l71.4 15.3c32.6 7.7 49.9-19.7 49.9-52.5v-141.6c0-3.8-1.9-5.8-3.8-5.8H896c-1.9 0-3.8 1.9-3.8 3.8v54.8c0 1.9 1.9 3.8 3.8 3.8l11.6.4v63.4c0 5.9-3.8 11.8-9.6 11.5l-22.6-1.9c-5.8 0-13-7.6-13.4-15.3v-227.4c2.9-12.1 8.6-12.2 12.9-14.4l17.4-1.9c7 0 12.9 4.2 12.9 11.9v48.5c.1 4.6 2 6.1 5.1 6l45.5-1.7c3.8-.1 3.8-3.8 3.8-5.8l-.1-65.2c-.1-30.1-11.8-51.5-34-51.3zm-546.2 2.7 18.1 5.1c14.9 5.3 20.8 16.4 20.8 28.1 1.2 38.2 1.5 79-1 112.2-1.5 8.8-10.1 14.8-19.7 14.8h-16.2c-5.9 0-7.8-1.6-7.8-5.9v-148.5c0-3.9 3-6.4 5.8-5.8z"/><path id="path12" class="st1" d="M68.7 857c58 311.3 437.4 504.7 845.7 427.4 410.3-75.5 692.9-390.6 634.9-703.9-58.1-313.2-437.4-504.7-845.9-429.3C295.1 228.6 10.6 543.7 68.7 857z"/><path id="path1187" class="st2" d="M1092.9 0c-11.2 0-22.3 1.7-33.1 5.4-28.9 9.7-52.3 31.6-67.7 64.4-3.8 6-1.9 13.7 3.8 19.5 5.8 3.9 13 5.1 18.8 1.3 11.5-9.7 23.1-15.4 38.5-21.4 67.4-23.2 140.7 9.2 175.1 79.4 0 2 3.8 3.9 5.8 3.9h3.8c4-1.9 5.9-5.9 5.9-9.7-.8-5.8-3-11.6-3.9-15.5-15.2-48.8-49.3-92.9-91.6-114.1-18-8.6-36.8-13.2-55.4-13.2zM559.8 3.3c-96.1-.8-178.3 90.3-185.9 203.8v17.3c0 5.9 3.8 7.8 7.7 9.8h1.9c3.8 0 5.8-3.8 7.7-7.7 21.1-92.3 107.8-157.8 206-153.8 21.1 0 44.2 3.8 65.4 13.4 5.8 1.9 11.5 0 15.4-5.8 5.8-7.7 3.8-15.5 0-21.3-30.9-34.5-71.3-53.7-113.6-55.6-1.6 0-3.1-.1-4.6-.1z"/><path id="path1160" class="st2" d="M1411.3 462.1c-7.7-3.8-13.4 1.9-9.6 7.7 15.4 32.8 15 80.8-35.1 80.8-55.7 0-128.7-69.2-226.8-69.2-69.2 0-146 48.1-153.7 155.7-46.2-71.1-128-119.1-226-119.1-180.6-.1-309.3 219-459.4 219-65.3 0-84.9-57.6-71.5-101.9 1.9-7.7-5.8-13.4-11.5-7.7-52 40.5-69.3 109.6-69.3 176.9 0 182.5 186.9 338.2 434.9 338.2 236.4 0 437-142.2 444.7-349.9 48 69.2 129.1 109.6 211.9 109.6 132.6 0 257.8-94.1 257.8-253.8 0-72.9-38.4-157.5-86.4-186.3z"/><path id="path1158" class="st2" d="M1129.8 250.3c-26.9-.3-47.6 31.5-43.6 71.8 2.2 44.3 31.4 82.6 62.1 84.3 28.8 1.7 49.8-31.1 45.6-73.5-4.1-42.3-29.4-80.6-60.1-82.3-1.4-.2-2.7-.2-4-.3zm-525.4 47c-34.8 1.7-57.7 40.1-52.3 89.9 5.5 47.8 39.9 88.5 74.6 86.8 34.7.2 56.1-40.5 50.7-90.2-7.4-48-38.4-86.3-73-86.5z"/></svg>